# xmcd
#
# Track frame offsets: 
#        150
#        8495
#        62095
#        103867
#        169473
#
# Disc length: 2843 seconds
#
# Revision: 0
# Processed by: cddbd v1.5.2PL0 Copyright (c) Steve Scherf et al.
# Submitted via: ExactAudioCopy v0.90b2
#
DISCID=3a0b1905
DTITLE=Paul Butterfield Blues Band - A&R Studios Dec 1970 (Disk 1)
DYEAR=1970
DGENRE=Electric Blues
TTITLE0=Intro
TTITLE1=Born Under a Bad Sign
TTITLE2=Play On
TTITLE3=Driftin' and Driftin'
TTITLE4=The Boxer
EXTD=Recorded live in A&R Studios, New York, February 1970 (exact date
EXTD=unknown).  \nSponsored by Signer Sewsing Machines.
EXTT0=
EXTT1=
EXTT2=
EXTT3=
EXTT4=
PLAYORDER=
